<svg width="390" height="680" viewBox="0 0 390 680" fill="none" xmlns="http://www.w3.org/2000/svg">
<path d="M157.321 452V441.091H158.642V450.828H163.713V452H157.321ZM167.996 452.192C167.477 452.192 167.007 452.094 166.584 451.899C166.162 451.7 165.826 451.414 165.577 451.041C165.329 450.665 165.205 450.21 165.205 449.678C165.205 449.209 165.297 448.829 165.482 448.538C165.666 448.243 165.913 448.012 166.222 447.845C166.531 447.678 166.872 447.554 167.245 447.472C167.621 447.387 167.999 447.32 168.379 447.27C168.876 447.206 169.279 447.158 169.588 447.126C169.901 447.091 170.128 447.032 170.27 446.95C170.416 446.869 170.489 446.727 170.489 446.524V446.482C170.489 445.956 170.345 445.548 170.057 445.256C169.773 444.965 169.342 444.82 168.763 444.82C168.163 444.82 167.692 444.951 167.351 445.214C167.01 445.477 166.771 445.757 166.632 446.055L165.439 445.629C165.652 445.132 165.936 444.745 166.291 444.468C166.65 444.187 167.04 443.992 167.463 443.882C167.889 443.768 168.308 443.712 168.72 443.712C168.983 443.712 169.285 443.744 169.626 443.808C169.97 443.868 170.302 443.994 170.622 444.186C170.945 444.377 171.213 444.667 171.426 445.054C171.639 445.441 171.746 445.96 171.746 446.609V452H170.489V450.892H170.425C170.339 451.07 170.197 451.26 169.999 451.462C169.8 451.664 169.535 451.837 169.205 451.979C168.875 452.121 168.472 452.192 167.996 452.192ZM168.188 451.062C168.685 451.062 169.104 450.965 169.445 450.77C169.789 450.574 170.048 450.322 170.222 450.013C170.4 449.704 170.489 449.379 170.489 449.038V447.888C170.435 447.952 170.318 448.01 170.137 448.064C169.96 448.113 169.754 448.158 169.519 448.197C169.288 448.232 169.063 448.264 168.843 448.293C168.626 448.317 168.45 448.339 168.315 448.357C167.989 448.399 167.683 448.468 167.399 448.564C167.119 448.657 166.891 448.797 166.717 448.985C166.547 449.17 166.462 449.422 166.462 449.741C166.462 450.178 166.623 450.509 166.946 450.732C167.273 450.952 167.687 451.062 168.188 451.062ZM175.297 447.078V452H174.04V443.818H175.255V445.097H175.361C175.553 444.681 175.844 444.347 176.235 444.095C176.625 443.839 177.13 443.712 177.748 443.712C178.302 443.712 178.786 443.825 179.202 444.053C179.617 444.276 179.94 444.617 180.171 445.075C180.402 445.53 180.517 446.105 180.517 446.801V452H179.26V446.886C179.26 446.244 179.093 445.743 178.76 445.384C178.426 445.022 177.968 444.841 177.385 444.841C176.984 444.841 176.625 444.928 176.309 445.102C175.997 445.276 175.75 445.53 175.569 445.864C175.388 446.197 175.297 446.602 175.297 447.078ZM185.904 452.17C185.222 452.17 184.62 451.998 184.098 451.654C183.576 451.306 183.168 450.816 182.873 450.184C182.578 449.548 182.431 448.797 182.431 447.93C182.431 447.071 182.578 446.325 182.873 445.693C183.168 445.061 183.578 444.573 184.104 444.228C184.629 443.884 185.237 443.712 185.925 443.712C186.458 443.712 186.879 443.8 187.188 443.978C187.5 444.152 187.738 444.351 187.902 444.575C188.069 444.795 188.198 444.976 188.29 445.118H188.397V441.091H189.654V452H188.44V450.743H188.29C188.198 450.892 188.067 451.08 187.896 451.308C187.726 451.531 187.483 451.732 187.167 451.909C186.85 452.083 186.43 452.17 185.904 452.17ZM186.075 451.041C186.579 451.041 187.005 450.91 187.353 450.647C187.701 450.381 187.966 450.013 188.147 449.544C188.328 449.072 188.418 448.527 188.418 447.909C188.418 447.298 188.33 446.764 188.152 446.306C187.974 445.844 187.712 445.485 187.364 445.23C187.016 444.971 186.586 444.841 186.075 444.841C185.542 444.841 185.098 444.978 184.743 445.251C184.391 445.521 184.127 445.888 183.949 446.354C183.775 446.815 183.688 447.334 183.688 447.909C183.688 448.491 183.777 449.021 183.955 449.496C184.136 449.969 184.402 450.345 184.754 450.626C185.109 450.903 185.549 451.041 186.075 451.041ZM197.926 445.651L196.797 445.97C196.726 445.782 196.621 445.599 196.483 445.422C196.348 445.24 196.163 445.091 195.929 444.974C195.695 444.857 195.395 444.798 195.029 444.798C194.528 444.798 194.111 444.914 193.777 445.145C193.447 445.372 193.282 445.661 193.282 446.013C193.282 446.325 193.395 446.572 193.623 446.753C193.85 446.934 194.205 447.085 194.688 447.206L195.902 447.504C196.634 447.682 197.179 447.953 197.538 448.319C197.896 448.681 198.076 449.148 198.076 449.72C198.076 450.189 197.941 450.608 197.671 450.977C197.404 451.347 197.032 451.638 196.552 451.851C196.073 452.064 195.515 452.17 194.88 452.17C194.045 452.17 193.354 451.989 192.808 451.627C192.261 451.265 191.914 450.736 191.769 450.04L192.962 449.741C193.076 450.182 193.29 450.512 193.607 450.732C193.926 450.952 194.343 451.062 194.858 451.062C195.444 451.062 195.909 450.938 196.254 450.69C196.602 450.437 196.776 450.136 196.776 449.784C196.776 449.5 196.676 449.262 196.478 449.07C196.279 448.875 195.973 448.729 195.561 448.634L194.198 448.314C193.449 448.136 192.898 447.861 192.547 447.488C192.199 447.112 192.025 446.641 192.025 446.077C192.025 445.615 192.154 445.207 192.413 444.852C192.676 444.496 193.033 444.218 193.484 444.015C193.939 443.813 194.453 443.712 195.029 443.712C195.838 443.712 196.474 443.889 196.936 444.244C197.401 444.599 197.731 445.068 197.926 445.651ZM203.292 452.17C202.525 452.17 201.864 451.989 201.31 451.627C200.756 451.265 200.33 450.766 200.032 450.13C199.734 449.495 199.584 448.768 199.584 447.952C199.584 447.121 199.737 446.387 200.043 445.752C200.351 445.113 200.781 444.614 201.332 444.255C201.886 443.893 202.532 443.712 203.271 443.712C203.846 443.712 204.364 443.818 204.826 444.031C205.288 444.244 205.666 444.543 205.96 444.926C206.255 445.31 206.438 445.757 206.509 446.268H205.252C205.156 445.896 204.943 445.565 204.613 445.278C204.286 444.987 203.846 444.841 203.292 444.841C202.802 444.841 202.372 444.969 202.003 445.224C201.637 445.477 201.351 445.833 201.145 446.295C200.943 446.753 200.842 447.291 200.842 447.909C200.842 448.541 200.941 449.092 201.14 449.56C201.342 450.029 201.626 450.393 201.992 450.652C202.361 450.912 202.795 451.041 203.292 451.041C203.619 451.041 203.915 450.984 204.181 450.871C204.448 450.757 204.673 450.594 204.858 450.381C205.043 450.168 205.174 449.912 205.252 449.614H206.509C206.438 450.097 206.262 450.532 205.982 450.919C205.705 451.302 205.337 451.608 204.879 451.835C204.425 452.059 203.896 452.17 203.292 452.17ZM210.755 452.192C210.236 452.192 209.766 452.094 209.343 451.899C208.92 451.7 208.585 451.414 208.336 451.041C208.088 450.665 207.963 450.21 207.963 449.678C207.963 449.209 208.056 448.829 208.24 448.538C208.425 448.243 208.672 448.012 208.981 447.845C209.29 447.678 209.631 447.554 210.003 447.472C210.38 447.387 210.758 447.32 211.138 447.27C211.635 447.206 212.038 447.158 212.347 447.126C212.66 447.091 212.887 447.032 213.029 446.95C213.175 446.869 213.247 446.727 213.247 446.524V446.482C213.247 445.956 213.104 445.548 212.816 445.256C212.532 444.965 212.1 444.82 211.522 444.82C210.921 444.82 210.451 444.951 210.11 445.214C209.769 445.477 209.529 445.757 209.391 446.055L208.198 445.629C208.411 445.132 208.695 444.745 209.05 444.468C209.409 444.187 209.799 443.992 210.222 443.882C210.648 443.768 211.067 443.712 211.479 443.712C211.742 443.712 212.044 443.744 212.384 443.808C212.729 443.868 213.061 443.994 213.381 444.186C213.704 444.377 213.972 444.667 214.185 445.054C214.398 445.441 214.505 445.96 214.505 446.609V452H213.247V450.892H213.184C213.098 451.07 212.956 451.26 212.757 451.462C212.559 451.664 212.294 451.837 211.964 451.979C211.633 452.121 211.23 452.192 210.755 452.192ZM210.946 451.062C211.443 451.062 211.862 450.965 212.203 450.77C212.548 450.574 212.807 450.322 212.981 450.013C213.159 449.704 213.247 449.379 213.247 449.038V447.888C213.194 447.952 213.077 448.01 212.896 448.064C212.718 448.113 212.512 448.158 212.278 448.197C212.047 448.232 211.822 448.264 211.601 448.293C211.385 448.317 211.209 448.339 211.074 448.357C210.747 448.399 210.442 448.468 210.158 448.564C209.877 448.657 209.65 448.797 209.476 448.985C209.306 449.17 209.22 449.422 209.22 449.741C209.22 450.178 209.382 450.509 209.705 450.732C210.032 450.952 210.446 451.062 210.946 451.062ZM216.799 455.068V443.818H218.013V445.118H218.163C218.255 444.976 218.383 444.795 218.546 444.575C218.713 444.351 218.951 444.152 219.26 443.978C219.572 443.8 219.995 443.712 220.528 443.712C221.217 443.712 221.824 443.884 222.349 444.228C222.875 444.573 223.285 445.061 223.58 445.693C223.875 446.325 224.022 447.071 224.022 447.93C224.022 448.797 223.875 449.548 223.58 450.184C223.285 450.816 222.877 451.306 222.355 451.654C221.833 451.998 221.231 452.17 220.549 452.17C220.023 452.17 219.603 452.083 219.287 451.909C218.971 451.732 218.727 451.531 218.557 451.308C218.386 451.08 218.255 450.892 218.163 450.743H218.056V455.068H216.799ZM218.035 447.909C218.035 448.527 218.125 449.072 218.306 449.544C218.488 450.013 218.752 450.381 219.1 450.647C219.448 450.91 219.874 451.041 220.379 451.041C220.904 451.041 221.343 450.903 221.694 450.626C222.049 450.345 222.316 449.969 222.493 449.496C222.674 449.021 222.765 448.491 222.765 447.909C222.765 447.334 222.676 446.815 222.499 446.354C222.325 445.888 222.06 445.521 221.705 445.251C221.353 444.978 220.911 444.841 220.379 444.841C219.867 444.841 219.438 444.971 219.089 445.23C218.741 445.485 218.479 445.844 218.301 446.306C218.124 446.764 218.035 447.298 218.035 447.909ZM229.37 452.17C228.582 452.17 227.902 451.996 227.33 451.648C226.762 451.297 226.323 450.807 226.014 450.178C225.709 449.546 225.556 448.811 225.556 447.973C225.556 447.135 225.709 446.396 226.014 445.757C226.323 445.114 226.753 444.614 227.303 444.255C227.857 443.893 228.504 443.712 229.242 443.712C229.668 443.712 230.089 443.783 230.505 443.925C230.92 444.067 231.298 444.298 231.639 444.617C231.98 444.933 232.252 445.352 232.454 445.874C232.657 446.396 232.758 447.039 232.758 447.803V448.335H226.451V447.249H231.479C231.479 446.787 231.387 446.375 231.202 446.013C231.021 445.651 230.762 445.365 230.425 445.155C230.091 444.946 229.697 444.841 229.242 444.841C228.741 444.841 228.308 444.965 227.942 445.214C227.58 445.459 227.301 445.778 227.106 446.173C226.911 446.567 226.813 446.989 226.813 447.44V448.165C226.813 448.783 226.92 449.306 227.133 449.736C227.349 450.162 227.65 450.487 228.033 450.711C228.417 450.931 228.862 451.041 229.37 451.041C229.7 451.041 229.999 450.995 230.265 450.903C230.535 450.807 230.767 450.665 230.963 450.477C231.158 450.285 231.309 450.047 231.415 449.763L232.63 450.104C232.502 450.516 232.287 450.878 231.985 451.19C231.684 451.499 231.311 451.741 230.867 451.915C230.423 452.085 229.924 452.17 229.37 452.17Z" fill="black" fill-opacity="0.5"/>
<rect width="390" height="680" rx="20" fill="white" fill-opacity="0.96"/>
<path d="M0 617C0 605.954 8.9543 597 20 597H370C381.046 597 390 605.954 390 617V660C390 671.046 381.046 680 370 680H20C8.9543 680 0 671.046 0 660V617Z" fill="#D9D9D9"/>
<rect y="597" width="390" height="23" fill="#D9D9D9"/>
<rect x="8" y="340" width="373" height="214" rx="10" fill="#D9D9D9"/>
</svg>
